<?xml version="1.0" encoding="UTF-8" standalone="no"?>
<!DOCTYPE svg PUBLIC "-//W3C//DTD SVG 1.1//EN"
 "http://www.w3.org/Graphics/SVG/1.1/DTD/svg11.dtd">
<!-- Generated by graphviz version 5.0.1 (20220820.1526)
 -->
<!-- Title: G Pages: 1 -->
<svg width="253pt" height="125pt"
 viewBox="0.00 0.00 252.88 125.00" xmlns="http://www.w3.org/2000/svg" xmlns:xlink="http://www.w3.org/1999/xlink">
<g id="graph0" class="graph" transform="scale(1 1) rotate(0) translate(4 121)">
<title>G</title>
<polygon fill="white" stroke="none" points="-4,4 -4,-121 248.88,-121 248.88,4 -4,4"/>
<!-- sjmn -->
<g id="node1" class="node">
<title>sjmn</title>
<ellipse fill="lightgrey" stroke="black" cx="27.95" cy="-45" rx="27.9" ry="18"/>
<text text-anchor="middle" x="27.95" y="-41.3" font-family="Times New Roman,serif" font-size="14.00">sjmn</text>
</g>
<!-- drzm -->
<g id="node2" class="node">
<title>drzm</title>
<ellipse fill="lightgrey" stroke="black" cx="121.14" cy="-72" rx="29.5" ry="18"/>
<text text-anchor="middle" x="121.14" y="-68.3" font-family="Times New Roman,serif" font-size="14.00">drzm</text>
</g>
<!-- sjmn&#45;&gt;drzm -->
<g id="edge1" class="edge">
<title>sjmn&#45;&gt;drzm</title>
<path fill="none" stroke="black" d="M53.87,-52.38C63.28,-55.16 74.19,-58.39 84.4,-61.42"/>
<polygon fill="black" stroke="black" points="83.72,-64.87 94.3,-64.35 85.7,-58.15 83.72,-64.87"/>
</g>
<!-- dbpl -->
<g id="node3" class="node">
<title>dbpl</title>
<ellipse fill="lightgrey" stroke="black" cx="121.14" cy="-18" rx="27.1" ry="18"/>
<text text-anchor="middle" x="121.14" y="-14.3" font-family="Times New Roman,serif" font-size="14.00">dbpl</text>
</g>
<!-- sjmn&#45;&gt;dbpl -->
<g id="edge2" class="edge">
<title>sjmn&#45;&gt;dbpl</title>
<path fill="none" stroke="black" d="M53.87,-37.62C63.78,-34.69 75.34,-31.26 86.01,-28.1"/>
<polygon fill="black" stroke="black" points="87.29,-31.38 95.88,-25.18 85.3,-24.67 87.29,-31.38"/>
</g>
<!-- hmdt -->
<g id="node4" class="node">
<title>hmdt</title>
<ellipse fill="lightgrey" stroke="black" cx="215.64" cy="-99" rx="29.5" ry="18"/>
<text text-anchor="middle" x="215.64" y="-95.3" font-family="Times New Roman,serif" font-size="14.00">hmdt</text>
</g>
<!-- drzm&#45;&gt;hmdt -->
<g id="edge3" class="edge">
<title>drzm&#45;&gt;hmdt</title>
<path fill="none" stroke="black" d="M147.91,-79.52C157.63,-82.36 168.86,-85.64 179.31,-88.69"/>
<polygon fill="black" stroke="black" points="178.43,-92.08 189.01,-91.52 180.39,-85.36 178.43,-92.08"/>
</g>
<!-- zczc -->
<g id="node5" class="node">
<title>zczc</title>
<ellipse fill="lightgrey" stroke="black" cx="215.64" cy="-45" rx="27.1" ry="18"/>
<text text-anchor="middle" x="215.64" y="-41.3" font-family="Times New Roman,serif" font-size="14.00">zczc</text>
</g>
<!-- drzm&#45;&gt;zczc -->
<g id="edge4" class="edge">
<title>drzm&#45;&gt;zczc</title>
<path fill="none" stroke="black" d="M147.91,-64.48C157.95,-61.55 169.62,-58.14 180.35,-55.01"/>
<polygon fill="black" stroke="black" points="181.66,-58.27 190.28,-52.11 179.7,-51.55 181.66,-58.27"/>
</g>
</g>
</svg>
