<?xml version="1.0" encoding="UTF-8" standalone="no"?>
<!DOCTYPE svg PUBLIC "-//W3C//DTD SVG 1.1//EN"
 "http://www.w3.org/Graphics/SVG/1.1/DTD/svg11.dtd">
<!-- Generated by graphviz version 5.0.1 (20220820.1526)
 -->
<!-- Title: G Pages: 1 -->
<svg width="443pt" height="152pt"
 viewBox="0.00 0.00 442.58 152.00" xmlns="http://www.w3.org/2000/svg" xmlns:xlink="http://www.w3.org/1999/xlink">
<g id="graph0" class="graph" transform="scale(1 1) rotate(0) translate(4 148)">
<title>G</title>
<polygon fill="white" stroke="none" points="-4,4 -4,-148 438.58,-148 438.58,4 -4,4"/>
<!-- pppw -->
<g id="node1" class="node">
<title>pppw</title>
<ellipse fill="lightgrey" stroke="black" cx="31.85" cy="-72" rx="31.7" ry="18"/>
<text text-anchor="middle" x="31.85" y="-68.3" font-family="Times New Roman,serif" font-size="14.00">pppw</text>
</g>
<!-- cczh -->
<g id="node2" class="node">
<title>cczh</title>
<ellipse fill="lightgrey" stroke="black" cx="127.64" cy="-99" rx="27.9" ry="18"/>
<text text-anchor="middle" x="127.64" y="-95.3" font-family="Times New Roman,serif" font-size="14.00">cczh</text>
</g>
<!-- pppw&#45;&gt;cczh -->
<g id="edge1" class="edge">
<title>pppw&#45;&gt;cczh</title>
<path fill="none" stroke="black" d="M60.48,-79.95C70.39,-82.81 81.69,-86.06 92.11,-89.06"/>
<polygon fill="black" stroke="black" points="91.18,-92.43 101.76,-91.84 93.12,-85.71 91.18,-92.43"/>
</g>
<!-- lfqf -->
<g id="node3" class="node">
<title>lfqf</title>
<ellipse fill="lightgrey" stroke="black" cx="127.64" cy="-45" rx="27" ry="18"/>
<text text-anchor="middle" x="127.64" y="-41.3" font-family="Times New Roman,serif" font-size="14.00">lfqf</text>
</g>
<!-- pppw&#45;&gt;lfqf -->
<g id="edge2" class="edge">
<title>pppw&#45;&gt;lfqf</title>
<path fill="none" stroke="black" d="M60.48,-64.05C70.56,-61.15 82.06,-57.83 92.63,-54.79"/>
<polygon fill="black" stroke="black" points="93.75,-58.11 102.39,-51.98 91.81,-51.38 93.75,-58.11"/>
</g>
<!-- sllz -->
<g id="node4" class="node">
<title>sllz</title>
<ellipse fill="lightgrey" stroke="black" cx="218.59" cy="-126" rx="27" ry="18"/>
<text text-anchor="middle" x="218.59" y="-122.3" font-family="Times New Roman,serif" font-size="14.00">sllz</text>
</g>
<!-- cczh&#45;&gt;sllz -->
<g id="edge3" class="edge">
<title>cczh&#45;&gt;sllz</title>
<path fill="none" stroke="black" d="M153.42,-106.52C162.83,-109.38 173.71,-112.68 183.8,-115.74"/>
<polygon fill="black" stroke="black" points="182.97,-119.15 193.56,-118.71 185.01,-112.45 182.97,-119.15"/>
</g>
<!-- lgvd -->
<g id="node5" class="node">
<title>lgvd</title>
<ellipse fill="lightgrey" stroke="black" cx="218.59" cy="-72" rx="27" ry="18"/>
<text text-anchor="middle" x="218.59" y="-68.3" font-family="Times New Roman,serif" font-size="14.00">lgvd</text>
</g>
<!-- cczh&#45;&gt;lgvd -->
<g id="edge4" class="edge">
<title>cczh&#45;&gt;lgvd</title>
<path fill="none" stroke="black" d="M153.42,-91.48C162.83,-88.62 173.71,-85.32 183.8,-82.26"/>
<polygon fill="black" stroke="black" points="185.01,-85.55 193.56,-79.29 182.97,-78.85 185.01,-85.55"/>
</g>
<!-- ljgn -->
<g id="node6" class="node">
<title>ljgn</title>
<ellipse fill="lightgrey" stroke="black" cx="309.54" cy="-99" rx="27" ry="18"/>
<text text-anchor="middle" x="309.54" y="-95.3" font-family="Times New Roman,serif" font-size="14.00">ljgn</text>
</g>
<!-- lgvd&#45;&gt;ljgn -->
<g id="edge5" class="edge">
<title>lgvd&#45;&gt;ljgn</title>
<path fill="none" stroke="black" d="M243.43,-79.24C253.1,-82.17 264.44,-85.61 274.93,-88.8"/>
<polygon fill="black" stroke="black" points="274.05,-92.19 284.63,-91.74 276.08,-85.49 274.05,-92.19"/>
</g>
<!-- ptdq -->
<g id="node7" class="node">
<title>ptdq</title>
<ellipse fill="lightgrey" stroke="black" cx="309.54" cy="-45" rx="27.9" ry="18"/>
<text text-anchor="middle" x="309.54" y="-41.3" font-family="Times New Roman,serif" font-size="14.00">ptdq</text>
</g>
<!-- lgvd&#45;&gt;ptdq -->
<g id="edge6" class="edge">
<title>lgvd&#45;&gt;ptdq</title>
<path fill="none" stroke="black" d="M243.43,-64.76C252.94,-61.88 264.08,-58.5 274.42,-55.36"/>
<polygon fill="black" stroke="black" points="275.46,-58.7 284.01,-52.44 273.43,-52 275.46,-58.7"/>
</g>
<!-- humn -->
<g id="node8" class="node">
<title>humn</title>
<ellipse fill="lightgrey" stroke="black" cx="404.03" cy="-72" rx="30.59" ry="18"/>
<text text-anchor="middle" x="404.03" y="-68.3" font-family="Times New Roman,serif" font-size="14.00">humn</text>
</g>
<!-- ptdq&#45;&gt;humn -->
<g id="edge7" class="edge">
<title>ptdq&#45;&gt;humn</title>
<path fill="none" stroke="black" d="M335.32,-52.24C344.89,-55.03 356.04,-58.28 366.49,-61.33"/>
<polygon fill="black" stroke="black" points="365.65,-64.73 376.23,-64.18 367.61,-58.01 365.65,-64.73"/>
</g>
<!-- dvpt -->
<g id="node9" class="node">
<title>dvpt</title>
<ellipse fill="lightgrey" stroke="black" cx="404.03" cy="-18" rx="27.1" ry="18"/>
<text text-anchor="middle" x="404.03" y="-14.3" font-family="Times New Roman,serif" font-size="14.00">dvpt</text>
</g>
<!-- ptdq&#45;&gt;dvpt -->
<g id="edge8" class="edge">
<title>ptdq&#45;&gt;dvpt</title>
<path fill="none" stroke="black" d="M335.32,-37.76C345.65,-34.75 357.81,-31.2 368.95,-27.95"/>
<polygon fill="black" stroke="black" points="370.2,-31.23 378.82,-25.07 368.24,-24.51 370.2,-31.23"/>
</g>
</g>
</svg>
